<svg width="400" height="400" viewBox="0 0 400 400" fill="none" xmlns="http://www.w3.org/2000/svg">
<circle cx="200" cy="200" r="200" fill="#CAD0E9"/>
<g filter="url(#filter0_i)">
<path d="M147.128 305.728C145.784 305.728 143.672 305.632 140.792 305.44C137.912 305.248 134.84 305.056 131.576 304.864C128.312 304.672 125.24 304.48 122.36 304.288C119.48 304.096 117.368 304 116.024 304H99.608C98.264 304 96.152 304.096 93.272 304.288C90.392 304.48 87.32 304.672 84.056 304.864C80.984 305.056 78.008 305.248 75.128 305.44C72.248 305.632 70.136 305.728 68.792 305.728L68.216 304.576L69.08 299.392L70.52 298.24C73.592 298.24 77.048 298.144 80.888 297.952C84.728 297.568 87.416 296.704 88.952 295.36C90.488 294.016 92.12 292.288 93.848 290.176C95.576 288.064 96.632 284.32 97.016 278.944C97.208 277.6 97.304 276.064 97.304 274.336C97.496 272.416 97.592 270.112 97.592 267.424C97.784 264.736 97.88 261.472 97.88 257.632C97.88 253.792 97.88 248.992 97.88 243.232V184.768C97.88 172.288 97.784 161.248 97.592 151.648C97.4 141.856 97.208 134.464 97.016 129.472H93.848C84.248 129.472 76.376 129.568 70.232 129.76C64.088 129.76 59.096 129.952 55.256 130.336C51.608 130.528 48.824 130.816 46.904 131.2C45.176 131.584 43.928 132.064 43.16 132.64C38.936 134.944 36.344 139.936 35.384 147.616L34.232 148.768H27.608L29.624 115.936L30.776 113.344L32.504 112.48C34.04 113.056 37.4 113.632 42.584 114.208C47.768 114.592 53.432 114.88 59.576 115.072C65.72 115.264 71.576 115.456 77.144 115.648C82.904 115.648 87.032 115.648 89.528 115.648H125.816C128.312 115.648 132.344 115.648 137.912 115.648C143.672 115.456 149.624 115.264 155.768 115.072C161.912 114.88 167.576 114.592 172.76 114.208C177.944 113.632 181.304 113.056 182.84 112.48L184.568 113.344L185.72 115.936L188.024 148.768H181.112L179.96 147.616C179 139.936 176.408 134.944 172.184 132.64C171.416 132.064 170.072 131.584 168.152 131.2C166.424 130.816 163.64 130.528 159.8 130.336C156.152 129.952 151.256 129.76 145.112 129.76C138.968 129.568 131.192 129.472 121.784 129.472H118.616C118.424 135.04 118.232 142.336 118.04 151.36C118.04 160.384 118.04 171.424 118.04 184.48V237.472C118.04 244.384 118.04 250.048 118.04 254.464C118.04 258.688 118.04 262.24 118.04 265.12C118.232 268 118.328 270.496 118.328 272.608C118.52 274.528 118.712 276.64 118.904 278.944C119.288 284.32 120.344 288.064 122.072 290.176C123.8 292.288 125.432 294.016 126.968 295.36C128.504 296.704 131.192 297.568 135.032 297.952C138.872 298.144 142.328 298.24 145.4 298.24L146.84 299.392L147.704 304.576L147.128 305.728ZM275.538 305.728C274.194 305.728 271.986 305.632 268.914 305.44C265.842 305.248 262.674 305.056 259.41 304.864C256.146 304.672 252.978 304.48 249.906 304.288C246.834 304.096 244.626 304 243.282 304H237.81C236.466 304 234.258 304.096 231.186 304.288C228.114 304.48 224.946 304.672 221.682 304.864C218.418 305.056 215.25 305.248 212.178 305.44C209.106 305.632 206.898 305.728 205.554 305.728L204.978 304.576L205.842 299.392L207.282 298.24C209.586 298.24 212.274 298.144 215.346 297.952C218.418 297.568 220.818 296.8 222.546 295.648C224.082 294.496 225.522 292.672 226.866 290.176C228.21 287.68 229.17 283.936 229.746 278.944C229.746 277.6 229.746 276.064 229.746 274.336C229.938 272.416 230.034 270.112 230.034 267.424C230.226 264.736 230.322 261.472 230.322 257.632C230.322 253.792 230.322 248.992 230.322 243.232V168.352C230.322 164.512 230.226 160.192 230.034 155.392C230.034 150.4 229.842 145.504 229.458 140.704C229.074 136.288 228.21 132.832 226.866 130.336C225.522 127.648 224.082 125.632 222.546 124.288C220.818 123.328 218.994 122.656 217.074 122.272C215.346 121.696 212.082 121.408 207.282 121.408L205.842 120.256L204.978 115.072L205.554 113.92C206.898 113.92 208.626 114.016 210.738 114.208C213.042 114.4 215.346 114.592 217.65 114.784C220.146 114.976 222.642 115.168 225.138 115.36C227.634 115.552 229.938 115.648 232.05 115.648H242.418C244.53 115.648 246.93 115.648 249.618 115.648C252.306 115.648 254.994 115.648 257.682 115.648C260.562 115.456 263.154 115.36 265.458 115.36C267.762 115.36 269.682 115.36 271.218 115.36C284.082 115.36 294.93 116.608 303.762 119.104C312.786 121.6 320.082 125.056 325.65 129.472C331.218 133.696 335.25 138.88 337.746 145.024C340.434 150.976 341.778 157.408 341.778 164.32C341.778 172.576 340.242 179.776 337.17 185.92C334.29 191.872 330.546 197.056 325.938 201.472C321.33 205.696 316.146 209.152 310.386 211.84C304.626 214.336 298.962 216.256 293.394 217.6C299.538 226.24 305.874 234.784 312.402 243.232C318.93 251.68 325.65 259.936 332.562 268C336.402 272.416 339.954 276.352 343.218 279.808C346.482 283.264 349.938 286.24 353.586 288.736C357.426 291.232 361.65 293.248 366.258 294.784C370.866 296.32 376.434 297.472 382.962 298.24L384.69 299.392L385.266 304.576L384.69 305.728C380.466 305.92 375.666 306.112 370.29 306.304C364.914 306.688 360.69 306.88 357.618 306.88C352.626 306.88 348.306 306.304 344.658 305.152C341.01 304 337.458 302.176 334.002 299.68C330.546 297.184 326.994 293.92 323.346 289.888C319.89 285.856 315.858 281.056 311.25 275.488C310.674 274.912 308.946 272.704 306.066 268.864C303.378 264.832 300.018 260.128 295.986 254.752C292.146 249.184 288.018 243.328 283.602 237.184C279.378 230.848 275.442 224.992 271.794 219.616H250.77C250.77 224.8 250.77 230.464 250.77 236.608C250.77 242.752 250.77 248.608 250.77 254.176C250.962 259.744 251.058 264.832 251.058 269.44C251.25 273.856 251.442 277.024 251.634 278.944C252.018 284.512 252.978 288.448 254.514 290.752C256.05 292.864 257.394 294.4 258.546 295.36C260.274 296.32 262.002 297.088 263.73 297.664C265.65 298.048 269.106 298.24 274.098 298.24L275.25 299.392L276.114 304.576L275.538 305.728ZM276.978 206.944C292.914 206.944 304.338 203.296 311.25 196C318.354 188.512 321.906 178.528 321.906 166.048C321.906 154.336 317.874 145.312 309.81 138.976C301.938 132.64 291.09 129.472 277.266 129.472H252.21C251.826 135.04 251.538 139.744 251.346 143.584C251.346 147.424 251.25 150.784 251.058 153.664C250.866 156.544 250.77 159.136 250.77 161.44C250.77 163.744 250.77 165.952 250.77 168.064V196.288C250.77 198.784 250.866 200.8 251.058 202.336C251.25 203.68 251.73 204.736 252.498 205.504C253.266 206.08 254.322 206.464 255.666 206.656C257.202 206.848 259.218 206.944 261.714 206.944H276.978Z" fill="#E85046"/>
</g>
<defs>
<filter id="filter0_i" x="27.608" y="112.48" width="357.658" height="198.4" filterUnits="userSpaceOnUse" color-interpolation-filters="sRGB">
<feFlood flood-opacity="0" result="BackgroundImageFix"/>
<feBlend mode="normal" in="SourceGraphic" in2="BackgroundImageFix" result="shape"/>
<feColorMatrix in="SourceAlpha" type="matrix" values="0 0 0 0 0 0 0 0 0 0 0 0 0 0 0 0 0 0 127 0" result="hardAlpha"/>
<feOffset dy="4"/>
<feGaussianBlur stdDeviation="2"/>
<feComposite in2="hardAlpha" operator="arithmetic" k2="-1" k3="1"/>
<feColorMatrix type="matrix" values="0 0 0 0 0 0 0 0 0 0 0 0 0 0 0 0 0 0 0.25 0"/>
<feBlend mode="normal" in2="shape" result="effect1_innerShadow"/>
</filter>
</defs>
</svg>
