<svg width="1000" height="365" viewBox="0 0 1000 365" fill="none" xmlns="http://www.w3.org/2000/svg">
<path d="M206.458 330.972H222.676L222.658 333.888H209.878V342.492H221.362V345.372H209.878V357H206.458V330.972ZM234.334 357L243.748 330.972H247.51L256.924 357H253.522L250.966 349.872H240.328L237.718 357H234.334ZM241.174 346.812H250.084L245.656 334.266L241.174 346.812ZM280.947 357.36C279.315 357.36 277.761 357.09 276.285 356.55C274.821 355.998 273.585 355.182 272.577 354.102C271.581 353.022 270.975 351.684 270.759 350.088H274.251C274.575 351.564 275.361 352.686 276.609 353.454C277.857 354.21 279.297 354.588 280.929 354.588C282.765 354.588 284.289 354.21 285.501 353.454C286.725 352.686 287.337 351.642 287.337 350.322C287.337 349.146 286.941 348.21 286.149 347.514C285.369 346.806 284.259 346.284 282.819 345.948L277.707 344.76C275.787 344.34 274.281 343.59 273.189 342.51C272.109 341.43 271.557 340.002 271.533 338.226C271.533 336.726 271.929 335.406 272.721 334.266C273.513 333.126 274.611 332.238 276.015 331.602C277.419 330.966 279.021 330.648 280.821 330.648C282.897 330.648 284.643 331.002 286.059 331.71C287.475 332.418 288.543 333.348 289.263 334.5C289.983 335.652 290.349 336.882 290.361 338.19H286.923C286.815 337.014 286.467 336.084 285.879 335.4C285.303 334.704 284.571 334.212 283.683 333.924C282.807 333.624 281.859 333.474 280.839 333.474C279.855 333.474 278.919 333.642 278.031 333.978C277.155 334.314 276.435 334.812 275.871 335.472C275.319 336.12 275.043 336.93 275.043 337.902C275.043 338.85 275.361 339.618 275.997 340.206C276.633 340.782 277.803 341.28 279.507 341.7L284.457 342.888C286.185 343.26 287.499 343.854 288.399 344.67C289.299 345.474 289.911 346.374 290.235 347.37C290.571 348.366 290.739 349.338 290.739 350.286C290.739 351.594 290.349 352.782 289.569 353.85C288.801 354.918 287.685 355.77 286.221 356.406C284.757 357.042 282.999 357.36 280.947 357.36ZM324.396 344.994H310.356V357H307.026V330.972H310.356V342.06H324.396V330.972H327.726V357H324.396V344.994ZM345.389 330.972H348.719V357H345.389V330.972ZM376.194 357.36C373.878 357.36 371.874 356.844 370.182 355.812C368.49 354.768 367.182 353.256 366.258 351.276C365.346 349.284 364.89 346.872 364.89 344.04C364.89 341.196 365.352 338.778 366.276 336.786C367.2 334.782 368.508 333.252 370.2 332.196C371.892 331.14 373.89 330.612 376.194 330.612C378.498 330.612 380.49 331.14 382.17 332.196C383.85 333.24 385.146 334.764 386.058 336.768C386.97 338.772 387.426 341.196 387.426 344.04C387.426 346.86 386.97 349.266 386.058 351.258C385.158 353.238 383.868 354.75 382.188 355.794C380.508 356.838 378.51 357.36 376.194 357.36ZM376.194 354.462C378.606 354.462 380.472 353.628 381.792 351.96C383.112 350.292 383.772 347.664 383.772 344.076C383.772 340.44 383.106 337.77 381.774 336.066C380.442 334.362 378.582 333.51 376.194 333.51C373.818 333.51 371.952 334.368 370.596 336.084C369.24 337.8 368.562 340.464 368.562 344.076C368.562 347.664 369.24 350.292 370.596 351.96C371.952 353.628 373.818 354.462 376.194 354.462ZM420.559 330.972H423.889V357H420.919L406.951 336.48V357H403.621V330.972H406.807L420.559 351.204V330.972ZM458.715 357L468.129 330.972H471.891L481.305 357H477.903L475.347 349.872H464.709L462.099 357H458.715ZM465.555 346.812H474.465L470.037 334.266L465.555 346.812ZM513.956 330.972H517.286V357H514.316L500.348 336.48V357H497.018V330.972H500.204L513.956 351.204V330.972ZM534.958 330.972C535.054 330.972 535.45 330.972 536.146 330.972C536.842 330.972 537.64 330.978 538.54 330.99C539.452 330.99 540.274 330.996 541.006 331.008C545.782 331.08 549.232 332.208 551.356 334.392C553.48 336.564 554.542 339.708 554.542 343.824C554.542 348.144 553.408 351.42 551.14 353.652C548.884 355.884 545.392 357 540.664 357H534.958V330.972ZM538.378 333.834V354.138H540.664C542.812 354.138 544.66 353.808 546.208 353.148C547.756 352.476 548.944 351.39 549.772 349.89C550.612 348.39 551.032 346.386 551.032 343.878C551.032 341.37 550.624 339.384 549.808 337.92C549.004 336.456 547.84 335.412 546.316 334.788C544.792 334.152 542.956 333.834 540.808 333.834H538.378ZM589.816 357V330.972H598.186C601.354 330.972 603.748 331.554 605.368 332.718C607 333.882 607.816 335.562 607.816 337.758C607.816 339.138 607.456 340.32 606.736 341.304C606.016 342.288 604.768 343.098 602.992 343.734C605.044 344.178 606.466 344.97 607.258 346.11C608.062 347.238 608.464 348.534 608.464 349.998C608.464 354.666 605.128 357 598.456 357H589.816ZM593.146 342.42H598.816C599.716 342.42 600.61 342.294 601.498 342.042C602.386 341.79 603.124 341.358 603.712 340.746C604.3 340.134 604.594 339.276 604.594 338.172C604.594 336.66 604.012 335.544 602.848 334.824C601.696 334.092 600.196 333.726 598.348 333.726H593.146V342.42ZM593.146 354.228H598.42C600.592 354.228 602.242 353.874 603.37 353.166C604.51 352.446 605.08 351.342 605.08 349.854C605.08 348.762 604.798 347.88 604.234 347.208C603.682 346.524 602.932 346.026 601.984 345.714C601.036 345.402 599.98 345.246 598.816 345.246H593.146V354.228ZM625.014 357V330.972H641.43L641.412 333.906H628.362V342.402H640.116V345.318H628.344V353.994L641.772 354.03V357H625.014ZM676.842 330.972L668.022 345.93V357H664.71V345.912L655.836 330.972H659.472L666.384 342.942L673.188 330.972H676.842ZM700.335 357.36C698.019 357.36 696.015 356.844 694.323 355.812C692.631 354.768 691.323 353.256 690.399 351.276C689.487 349.284 689.031 346.872 689.031 344.04C689.031 341.196 689.493 338.778 690.417 336.786C691.341 334.782 692.649 333.252 694.341 332.196C696.033 331.14 698.031 330.612 700.335 330.612C702.639 330.612 704.631 331.14 706.311 332.196C707.991 333.24 709.287 334.764 710.199 336.768C711.111 338.772 711.567 341.196 711.567 344.04C711.567 346.86 711.111 349.266 710.199 351.258C709.299 353.238 708.009 354.75 706.329 355.794C704.649 356.838 702.651 357.36 700.335 357.36ZM700.335 354.462C702.747 354.462 704.613 353.628 705.933 351.96C707.253 350.292 707.913 347.664 707.913 344.076C707.913 340.44 707.247 337.77 705.915 336.066C704.583 334.362 702.723 333.51 700.335 333.51C697.959 333.51 696.093 334.368 694.737 336.084C693.381 337.8 692.703 340.464 692.703 344.076C692.703 347.664 693.381 350.292 694.737 351.96C696.093 353.628 697.959 354.462 700.335 354.462ZM744.7 330.972H748.03V357H745.06L731.092 336.48V357H727.762V330.972H730.948L744.7 351.204V330.972ZM765.703 330.972C765.799 330.972 766.195 330.972 766.891 330.972C767.587 330.972 768.385 330.978 769.285 330.99C770.197 330.99 771.019 330.996 771.751 331.008C776.527 331.08 779.977 332.208 782.101 334.392C784.225 336.564 785.287 339.708 785.287 343.824C785.287 348.144 784.153 351.42 781.885 353.652C779.629 355.884 776.137 357 771.409 357H765.703V330.972ZM769.123 333.834V354.138H771.409C773.557 354.138 775.405 353.808 776.953 353.148C778.501 352.476 779.689 351.39 780.517 349.89C781.357 348.39 781.777 346.386 781.777 343.878C781.777 341.37 781.369 339.384 780.553 337.92C779.749 336.456 778.585 335.412 777.061 334.788C775.537 334.152 773.701 333.834 771.553 333.834H769.123Z" fill="#E85046"/>
<path d="M124.128 245.728C122.784 245.728 120.672 245.632 117.792 245.44C114.912 245.248 111.84 245.056 108.576 244.864C105.312 244.672 102.24 244.48 99.36 244.288C96.48 244.096 94.368 244 93.024 244H76.608C75.264 244 73.152 244.096 70.272 244.288C67.392 244.48 64.32 244.672 61.056 244.864C57.984 245.056 55.008 245.248 52.128 245.44C49.248 245.632 47.136 245.728 45.792 245.728L45.216 244.576L46.08 239.392L47.52 238.24C50.592 238.24 54.048 238.144 57.888 237.952C61.728 237.568 64.416 236.704 65.952 235.36C67.488 234.016 69.12 232.288 70.848 230.176C72.576 228.064 73.632 224.32 74.016 218.944C74.208 217.6 74.304 216.064 74.304 214.336C74.496 212.416 74.592 210.112 74.592 207.424C74.784 204.736 74.88 201.472 74.88 197.632C74.88 193.792 74.88 188.992 74.88 183.232V124.768C74.88 112.288 74.784 101.248 74.592 91.648C74.4 81.856 74.208 74.464 74.016 69.472H70.848C61.248 69.472 53.376 69.568 47.232 69.76C41.088 69.76 36.096 69.952 32.256 70.336C28.608 70.528 25.824 70.816 23.904 71.2C22.176 71.584 20.928 72.064 20.16 72.64C15.936 74.944 13.344 79.936 12.384 87.616L11.232 88.768H4.608L6.624 55.936L7.776 53.344L9.504 52.48C11.04 53.056 14.4 53.632 19.584 54.208C24.768 54.592 30.432 54.88 36.576 55.072C42.72 55.264 48.576 55.456 54.144 55.648C59.904 55.648 64.032 55.648 66.528 55.648H102.816C105.312 55.648 109.344 55.648 114.912 55.648C120.672 55.456 126.624 55.264 132.768 55.072C138.912 54.88 144.576 54.592 149.76 54.208C154.944 53.632 158.304 53.056 159.84 52.48L161.568 53.344L162.72 55.936L165.024 88.768H158.112L156.96 87.616C156 79.936 153.408 74.944 149.184 72.64C148.416 72.064 147.072 71.584 145.152 71.2C143.424 70.816 140.64 70.528 136.8 70.336C133.152 69.952 128.256 69.76 122.112 69.76C115.968 69.568 108.192 69.472 98.784 69.472H95.616C95.424 75.04 95.232 82.336 95.04 91.36C95.04 100.384 95.04 111.424 95.04 124.48V177.472C95.04 184.384 95.04 190.048 95.04 194.464C95.04 198.688 95.04 202.24 95.04 205.12C95.232 208 95.328 210.496 95.328 212.608C95.52 214.528 95.712 216.64 95.904 218.944C96.288 224.32 97.344 228.064 99.072 230.176C100.8 232.288 102.432 234.016 103.968 235.36C105.504 236.704 108.192 237.568 112.032 237.952C115.872 238.144 119.328 238.24 122.4 238.24L123.84 239.392L124.704 244.576L124.128 245.728ZM338.938 245.728C337.594 245.728 335.386 245.632 332.314 245.44C329.242 245.248 326.074 245.056 322.81 244.864C319.546 244.672 316.378 244.48 313.306 244.288C310.234 244.096 308.026 244 306.682 244H301.21C299.866 244 297.658 244.096 294.586 244.288C291.514 244.48 288.346 244.672 285.082 244.864C281.818 245.056 278.65 245.248 275.578 245.44C272.506 245.632 270.298 245.728 268.954 245.728L268.378 244.576L269.242 239.392L270.682 238.24C272.986 238.24 275.674 238.144 278.746 237.952C281.818 237.568 284.218 236.8 285.946 235.648C287.482 234.496 288.922 232.672 290.266 230.176C291.61 227.68 292.57 223.936 293.146 218.944C293.146 217.6 293.146 216.064 293.146 214.336C293.338 212.416 293.434 210.112 293.434 207.424C293.626 204.736 293.722 201.472 293.722 197.632C293.722 193.792 293.722 188.992 293.722 183.232V108.352C293.722 104.512 293.626 100.192 293.434 95.392C293.434 90.4 293.242 85.504 292.858 80.704C292.474 76.288 291.61 72.832 290.266 70.336C288.922 67.648 287.482 65.632 285.946 64.288C284.218 63.328 282.394 62.656 280.474 62.272C278.746 61.696 275.482 61.408 270.682 61.408L269.242 60.256L268.378 55.072L268.954 53.92C270.298 53.92 272.026 54.016 274.138 54.208C276.442 54.4 278.746 54.592 281.05 54.784C283.546 54.976 286.042 55.168 288.538 55.36C291.034 55.552 293.338 55.648 295.45 55.648H305.818C307.93 55.648 310.33 55.648 313.018 55.648C315.706 55.648 318.394 55.648 321.082 55.648C323.962 55.456 326.554 55.36 328.858 55.36C331.162 55.36 333.082 55.36 334.618 55.36C347.482 55.36 358.33 56.608 367.162 59.104C376.186 61.6 383.482 65.056 389.05 69.472C394.618 73.696 398.65 78.88 401.146 85.024C403.834 90.976 405.178 97.408 405.178 104.32C405.178 112.576 403.642 119.776 400.57 125.92C397.69 131.872 393.946 137.056 389.338 141.472C384.73 145.696 379.546 149.152 373.786 151.84C368.026 154.336 362.362 156.256 356.794 157.6C362.938 166.24 369.274 174.784 375.802 183.232C382.33 191.68 389.05 199.936 395.962 208C399.802 212.416 403.354 216.352 406.618 219.808C409.882 223.264 413.338 226.24 416.986 228.736C420.826 231.232 425.05 233.248 429.658 234.784C434.266 236.32 439.834 237.472 446.362 238.24L448.09 239.392L448.666 244.576L448.09 245.728C443.866 245.92 439.066 246.112 433.69 246.304C428.314 246.688 424.09 246.88 421.018 246.88C416.026 246.88 411.706 246.304 408.058 245.152C404.41 244 400.858 242.176 397.402 239.68C393.946 237.184 390.394 233.92 386.746 229.888C383.29 225.856 379.258 221.056 374.65 215.488C374.074 214.912 372.346 212.704 369.466 208.864C366.778 204.832 363.418 200.128 359.386 194.752C355.546 189.184 351.418 183.328 347.002 177.184C342.778 170.848 338.842 164.992 335.194 159.616H314.17C314.17 164.8 314.17 170.464 314.17 176.608C314.17 182.752 314.17 188.608 314.17 194.176C314.362 199.744 314.458 204.832 314.458 209.44C314.65 213.856 314.842 217.024 315.034 218.944C315.418 224.512 316.378 228.448 317.914 230.752C319.45 232.864 320.794 234.4 321.946 235.36C323.674 236.32 325.402 237.088 327.13 237.664C329.05 238.048 332.506 238.24 337.498 238.24L338.65 239.392L339.514 244.576L338.938 245.728ZM340.378 146.944C356.314 146.944 367.738 143.296 374.65 136C381.754 128.512 385.306 118.528 385.306 106.048C385.306 94.336 381.274 85.312 373.21 78.976C365.338 72.64 354.49 69.472 340.666 69.472H315.61C315.226 75.04 314.938 79.744 314.746 83.584C314.746 87.424 314.65 90.784 314.458 93.664C314.266 96.544 314.17 99.136 314.17 101.44C314.17 103.744 314.17 105.952 314.17 108.064V136.288C314.17 138.784 314.266 140.8 314.458 142.336C314.65 143.68 315.13 144.736 315.898 145.504C316.666 146.08 317.722 146.464 319.066 146.656C320.602 146.848 322.618 146.944 325.114 146.944H340.378ZM633.186 52.48L680.418 183.232C682.338 188.992 683.97 193.792 685.314 197.632C686.85 201.472 688.098 204.736 689.058 207.424C690.21 210.112 691.17 212.416 691.938 214.336C692.706 216.064 693.378 217.6 693.954 218.944C696.066 223.744 698.178 227.488 700.29 230.176C702.594 232.672 704.898 234.592 707.202 235.936C709.506 237.088 711.81 237.76 714.114 237.952C716.61 238.144 719.106 238.24 721.602 238.24L723.042 239.392L723.906 244.576L723.33 245.728C721.986 245.728 719.97 245.632 717.282 245.44C714.594 245.248 711.81 245.056 708.93 244.864C706.05 244.672 703.266 244.48 700.578 244.288C698.082 244.096 696.162 244 694.818 244H685.314C683.97 244 681.762 244.096 678.69 244.288C675.618 244.48 672.354 244.672 668.898 244.864C665.634 245.056 662.466 245.248 659.394 245.44C656.322 245.632 654.114 245.728 652.77 245.728L652.194 244.576L653.058 239.392L654.21 238.24C659.778 238.24 664.098 237.664 667.17 236.512C670.242 235.168 671.778 231.712 671.778 226.144C671.778 221.728 670.242 215.584 667.17 207.712C664.29 199.648 660.642 189.568 656.226 177.472L651.33 163.648H586.818L581.922 177.472C577.506 189.568 573.762 199.648 570.69 207.712C567.81 215.584 566.37 221.728 566.37 226.144C566.37 231.712 567.906 235.168 570.978 236.512C574.05 237.664 578.37 238.24 583.938 238.24L585.378 239.392L586.242 244.576L585.666 245.728C584.322 245.728 582.21 245.632 579.33 245.44C576.45 245.248 573.378 245.056 570.114 244.864C567.042 244.672 564.066 244.48 561.186 244.288C558.306 244.096 556.194 244 554.85 244H549.378C548.034 244 546.018 244.096 543.33 244.288C540.642 244.48 537.858 244.672 534.978 244.864C532.098 245.056 529.314 245.248 526.626 245.44C524.13 245.632 522.21 245.728 520.866 245.728L520.578 244.576L521.154 239.392L522.594 238.24C525.09 238.24 527.49 238.144 529.794 237.952C532.098 237.76 534.402 237.088 536.706 235.936C539.01 234.592 541.218 232.672 543.33 230.176C545.634 227.488 547.938 223.744 550.242 218.944C550.818 217.984 551.298 216.928 551.682 215.776C552.258 214.432 553.026 212.512 553.986 210.016C555.138 207.52 556.482 204.256 558.018 200.224C559.746 196 561.858 190.624 564.354 184.096C567.042 177.376 570.21 169.216 573.858 159.616C577.698 150.016 582.306 138.4 587.682 124.768C590.178 118.048 592.77 111.424 595.458 104.896C598.146 98.176 600.642 91.936 602.946 86.176C605.25 80.416 607.266 75.328 608.994 70.912C610.914 66.496 612.258 63.232 613.026 61.12L630.018 52.48H633.186ZM591.714 151.264H646.722L619.362 77.248L591.714 151.264ZM960.982 89.92C960.406 85.696 958.582 82.144 955.51 79.264C952.438 76.384 948.598 74.08 943.99 72.352C939.574 70.624 934.582 69.472 929.014 68.896C923.638 68.128 918.262 67.744 912.886 67.744C893.878 67.744 878.902 72.064 867.958 80.704C858.934 88 852.118 97.696 847.51 109.792C843.094 121.888 840.886 135.136 840.886 149.536C840.886 163.168 842.806 175.168 846.646 185.536C850.678 195.712 856.15 204.256 863.062 211.168C869.974 218.08 878.134 223.36 887.542 227.008C897.142 230.464 907.51 232.192 918.646 232.192C926.518 232.192 935.542 231.136 945.718 229.024C956.086 226.72 965.878 222.4 975.094 216.064L977.974 219.232L971.638 232.192C962.038 237.376 952.438 241.216 942.838 243.712C933.43 246.016 923.638 247.168 913.462 247.168C899.062 247.168 886.006 244.864 874.294 240.256C862.582 235.648 852.502 229.12 844.054 220.672C835.798 212.032 829.366 201.856 824.758 190.144C820.15 178.24 817.846 165.088 817.846 150.688C817.846 137.248 819.862 124.576 823.894 112.672C828.118 100.576 834.262 90.112 842.326 81.28C850.582 72.448 860.662 65.44 872.566 60.256C884.662 55.072 898.678 52.48 914.614 52.48C918.07 52.48 922.102 52.672 926.71 53.056C931.51 53.248 936.502 53.728 941.686 54.496C946.87 55.264 952.15 56.32 957.526 57.664C962.902 58.816 968.086 60.352 973.078 62.272L973.942 64.864L970.198 91.072H961.846L960.982 89.92Z" fill="#E85046"/>
</svg>
